<?xml version="1.0" encoding="UTF-8"?>
<!-- Generator: Adobe Illustrator 16.0.4, SVG Export Plug-In . SVG Version: 6.00 Build 0)  -->
<!DOCTYPE svg PUBLIC "-//W3C//DTD SVG 1.1//EN" "http://www.w3.org/Graphics/SVG/1.1/DTD/svg11.dtd">
<svg version="1.1" id="Ebene_1" xmlns="http://www.w3.org/2000/svg" xmlns:xlink="http://www.w3.org/1999/xlink" x="0px" y="0px" width="346.955px" height="299.559px" viewBox="0 0 346.955 299.559" enable-background="new 0 0 346.955 299.559" xml:space="preserve">
<g>
	<path fill="#055FAF" d="M153.483,173.739c7.648,0,14.145-3.896,18.321-10.031c3.847-6.224,3.851-15.876,0.004-22.097   c-3.059-4.641-7.655-7.731-12.579-9.262c-9.548-2.705-18.731,1.168-24.056,9.236c-4.236,6.23-4.242,15.876-0.015,22.119   C139.352,170.256,145.865,173.739,153.483,173.739 M340.935,245.02c-3.654-4.355-7.731-7.584-12.451-10.283   c-4.686-2.682-10.133-5.154-14.979-7.373c-9.671-4.42-18.313-8.658-22.757-17.553c-2.127-4.254-2.826-8.502-0.389-12.662   c2.227-3.795,6.029-5.434,9.824-5.783c14.346-2.125,25.713,7.758,32.928,19.43l0.295,0.476h2.884l-0.004-31.038h-34.349   c-10.365,0-18.225,0.705-26.896,7.5c-8.717,6.836-13.651,13.92-13.981,25.262c-0.302,10.422,3.152,18.098,10.668,24.562   c3.521,3.033,7.303,5.639,11.184,8.051c3.863,2.414,7.846,4.646,11.793,6.941c7.854,4.574,15.568,9.395,21.824,16.246   c2.357,3.436,2.722,7.379,1.203,11.828c-2.282,6.688-10.053,7.809-17.064,7.809c-17.957,0-30.316-15.498-38.346-29.844   l-0.285-0.525h-2.602l-0.004,41.129l-0.404,0.002l-17.127-12.018V119.464l-48.803,23.172l1.545,5.341l9.752-2.04v141.489   l-15.881,10.441c0,0-5.273-3.754-15.453-10.783V173.956l-48.445,22.805l1.3,5.262l9.843-1.951v87.379l-18.086,11.844l0.008,0.266   h195.506c10.73,0,20.729-5.204,27.599-15.575C349.153,271.342,348.823,256.417,340.935,245.02"/>
	<path fill="#FFDD00" d="M137.001,81.052c-27.615,4.799-45.828,20.382-54.516,47.319c-9.939,30.818,7.858,62.062,25.941,78.861   c-9.613-15.836-18.181-41.431-9.237-65.664c8.07-21.869,20.64-34.342,42.591-41.564c25.861-8.508,53.515,2.803,67.944,15.889   C195.954,93.16,167.93,75.677,137.001,81.052 M34.417,232.061l0.692,0.865c20.757-7.459,37.39-16.416,55.056-29.053   c-3.433-4.027-5.751-6.92-8.409-11.592C62.782,204.473,48.333,217.107,34.417,232.061 M70.303,166.334   c-1.02-4.791-1.726-9.543-1.929-14.596C43.533,152.407,21.439,156.04,0,161.708l0.204,1.104   C24.227,167.138,46.486,168.066,70.303,166.334 M78.888,109.847c-23.148-12.18-45.345-22.16-67.934-28.323l-0.378,1.047   c19.835,16.028,39.483,29.574,62.234,40.321C74.578,117.571,76.386,113.937,78.888,109.847 M110.698,77.92   C97.126,55.417,81.315,35.219,65.157,18.176L64.3,18.879c8.782,24.089,20.097,45.73,34.058,66.798   C102.734,82.082,106.035,80.328,110.698,77.92 M153.677,69.53c-0.637-24.89-4.289-47.869-9.865-69.53l-1.058,0.02   c-4.295,23.894-5.111,45.724-3.427,69.625C144.178,69.131,148.81,69.191,153.677,69.53 M222.224,27.723l-0.996-0.471   c-15.422,15.903-26.582,31.641-36.982,50.825c4.352,2.029,8.041,4.427,11.963,7.732C207.978,66.443,216.202,47.33,222.224,27.723"/>
</g>
</svg>