<svg version="1.1" id="Ebene_1" xmlns="http://www.w3.org/2000/svg" x="0px" y="0px" viewBox="0 0 169.7 78.1" xml:space="preserve">
  <style type="text/css">
    .st0{fill:#646567}.st1{fill:#e05120}.st2{fill:#e9804d}.st3{fill:#f6c7aa}.st4{fill:#f0a57a}.st5{fill:#f8d3bb}
  </style>
  <g>
    <path class="st0" d="M70.1 68.9H69c0-.5-.2-1-.6-1.3-.4-.3-.9-.4-1.6-.4-.6 0-1 .1-1.4.4-.4.3-.5.6-.5.9 0 .3.1.6.4.7.2.2.6.3 1.1.4 1.8.3 2.9.6 3.3 1 .4.3.6.9.6 1.6 0 .8-.3 1.4-.9 1.8-.6.5-1.4.7-2.4.7s-1.8-.2-2.4-.7c-.6-.5-.9-1.2-1-2.1h1.2c0 .6.2 1 .6 1.4.4.3 1 .5 1.7.5s1.2-.1 1.6-.4c.4-.3.6-.7.6-1.1 0-.6-.8-1.1-2.3-1.4-.3-.1-.6-.1-.7-.1-.9-.2-1.5-.4-1.8-.7-.4-.3-.5-.8-.5-1.3 0-.7.3-1.3.8-1.8s1.3-.7 2.2-.7c1 0 1.8.2 2.4.7.3.4.6 1 .7 1.9z"/>
    <path class="st0" d="M72 64h1.2v2.6h2v1h-2V72c0 .7.1 1.2.2 1.4.1.2.3.3.7.3.1 0 .3 0 .5-.1s.4-.1.6-.2v1.1c-.3.1-.6.2-.8.2-.2.1-.5.1-.6.1-.6 0-1.1-.2-1.3-.5-.2-.3-.4-1-.4-2.2v-4.6H71v-1h1V64z"/>
    <path class="st0" d="M76.5 66.6h1.2v5.2c0 .7.1 1.2.4 1.5.3.3.7.5 1.3.5.8 0 1.4-.3 1.8-.8.4-.5.6-1.3.6-2.3v-4.1h1.1v7.9h-1.1l.1-1.4c-.3.5-.6 1-1.1 1.2-.5.3-1 .4-1.6.4-.9 0-1.5-.2-2-.7-.4-.5-.7-1.2-.7-2.2v-5.2z"/>
    <path class="st0" d="M85.4 64h1.2v2.6h2v1h-2V72c0 .7.1 1.2.2 1.4.1.2.3.3.7.3.1 0 .3 0 .5-.1s.4-.1.6-.2v1.1c-.3.1-.6.2-.8.2-.2.1-.5.1-.6.1-.6 0-1.1-.2-1.3-.5-.2-.3-.4-1-.4-2.2v-4.6h-1.1v-1h1.1V64z"/>
    <path class="st0" d="M90.8 64H92v2.6h2v1h-2V72c0 .7.1 1.2.2 1.4.1.2.3.3.7.3.1 0 .3 0 .5-.1s.4-.1.6-.2v1.1c-.3.1-.6.2-.8.2-.2.1-.5.1-.6.1-.6 0-1.1-.2-1.3-.5-.2-.3-.4-1-.4-2.2v-4.6h-1.1v-1h1.1V64z"/>
    <path class="st0" d="M100.8 73.1c-.3.5-.6.9-1.1 1.2-.5.3-1 .4-1.6.4-1 0-1.8-.4-2.5-1.2-.6-.8-1-1.8-1-3s.3-2.3 1-3.1c.6-.8 1.5-1.2 2.4-1.2.6 0 1.2.1 1.6.4.4.3.8.7 1.1 1.4v-1.5h1.1v8c0 1.1-.3 2-1 2.6-.6.6-1.5.9-2.7.9-.9 0-1.7-.2-2.2-.7-.6-.4-.9-1-1-1.8h1.2c.1.5.3.9.7 1.1.4.2.8.4 1.5.4.8 0 1.4-.2 1.8-.6.4-.4.6-1.1.6-1.9l.1-1.4zm-4.9-2.6c0 1 .2 1.8.7 2.4.4.6 1 .9 1.8.9.7 0 1.3-.3 1.7-.9.4-.6.7-1.4.7-2.3 0-1-.2-1.8-.7-2.4-.4-.6-1-.9-1.7-.9s-1.3.3-1.7.9c-.6.6-.8 1.4-.8 2.3z"/>
    <path class="st0" d="M110.1 69.2v3.1c0 .5 0 .9.1 1.2 0 .3.1.6.2.9h-1.2c0-.2-.1-.4-.1-.6 0-.2 0-.4-.1-.6-.4.5-.9.9-1.3 1.1-.5.2-1 .4-1.6.4-.8 0-1.5-.2-2-.7-.5-.5-.8-1.1-.8-1.9 0-.7.2-1.3.7-1.6.5-.4 1.3-.6 2.6-.8 1-.1 1.6-.3 1.9-.5.3-.2.5-.4.5-.8s-.2-.7-.6-1c-.4-.3-.9-.4-1.5-.4s-1 .1-1.3.4c-.3.2-.6.6-.7 1.1h-1.2c.2-.8.6-1.5 1.1-1.8.6-.4 1.3-.6 2.4-.6 1.1 0 1.8.2 2.3.7.4.6.6 1.4.6 2.4zm-1.1.6c-.5.3-1.3.6-2.4.8-.4.1-.7.1-.9.2-.4.1-.7.3-.9.5-.2.2-.3.6-.3.9 0 .5.2.8.5 1.1.4.3.8.4 1.4.4.9 0 1.6-.3 2-.8.4-.5.6-1.4.6-2.5V70v-.2z"/>
    <path class="st0" d="M116.5 66.2v1.1h-.3c-1.1 0-2 .3-2.5.8-.5.6-.8 1.5-.8 2.7v3.6h-1.2v-7.9h1.2v1.7c.4-.7.9-1.2 1.4-1.6.5-.3 1.2-.5 1.9-.5h.3z"/>
    <path class="st0" d="M117.9 64h1.2v2.6h2v1h-2V72c0 .7.1 1.2.2 1.4.1.2.3.3.7.3.1 0 .3 0 .5-.1s.4-.1.6-.2v1.1c-.3.1-.6.2-.8.2-.2.1-.5.1-.6.1-.6 0-1.1-.2-1.3-.5-.2-.3-.4-1-.4-2.2v-4.6h-1.1v-1h1.1V64z"/>
  </g>
  <g>
    <path class="st1" d="M63.7 42.1H66v15.3h-2.2V42.1z"/>
    <path class="st1" d="M71 37.1h2.3v5h3.8V44h-3.8v8.7c0 1.4.1 2.3.4 2.7.2.4.7.5 1.3.5.3 0 .6-.1.9-.2.3-.1.8-.3 1.2-.5v2.2c-.6.2-1.1.3-1.6.4-.5.1-.9.2-1.3.2-1.2 0-2.1-.3-2.5-1-.5-.6-.7-2-.7-4.2V44h-2.2v-1.9H71v-5z"/>
    <path class="st1" d="M98.4 46.7h-2.2c0-1.1-.4-1.9-1.2-2.4-.7-.6-1.8-.8-3.2-.8-1.1 0-2 .2-2.7.7-.7.5-1.1 1.1-1.1 1.8 0 .6.2 1.1.7 1.5.5.4 1.2.7 2.1.8 3.4.6 5.6 1.2 6.4 1.9.8.7 1.3 1.7 1.3 3 0 1.5-.6 2.7-1.7 3.6-1.2.9-2.7 1.3-4.7 1.3s-3.6-.5-4.7-1.4c-1.2-1-1.8-2.3-2-4.1h2.3v.1c0 1.1.4 2 1.2 2.7.8.7 1.9 1 3.2 1 1.3 0 2.3-.3 3.1-.8.8-.6 1.2-1.3 1.2-2.2 0-1.2-1.5-2.1-4.4-2.7-.6-.1-1.1-.2-1.4-.3-1.7-.3-2.9-.8-3.6-1.4-.7-.6-1-1.5-1-2.6 0-1.4.5-2.6 1.6-3.4 1.1-.9 2.5-1.3 4.3-1.3 2 0 3.6.4 4.7 1.3 1.1.7 1.7 2 1.8 3.7z"/>
    <path class="st1" d="M114.3 46.9H112c-.2-1.1-.7-2-1.4-2.6-.7-.6-1.6-.9-2.7-.9-1.5 0-2.6.6-3.5 1.7-.9 1.2-1.3 2.7-1.3 4.6 0 2 .4 3.6 1.3 4.7.9 1.2 2.1 1.8 3.6 1.8 1.1 0 1.9-.3 2.7-1 .7-.7 1.2-1.6 1.4-2.8h2.4c-.2 1.8-.9 3.3-2 4.3s-2.7 1.5-4.5 1.5c-2.2 0-3.9-.8-5.2-2.3-1.3-1.5-1.9-3.6-1.9-6.2 0-2.5.6-4.5 1.9-6 1.3-1.5 3.1-2.2 5.3-2.2 1.8 0 3.3.5 4.4 1.4.9.9 1.6 2.2 1.8 4z"/>
    <path class="st1" d="M117 33.9h2.2v10.8c.4-1 1.1-1.8 1.9-2.4.9-.6 1.9-.8 3.1-.8 1.7 0 3 .5 3.9 1.4.9 1 1.3 2.4 1.3 4.4v10.2h-2.3V47.3c0-1.4-.3-2.3-.8-3-.5-.6-1.3-.9-2.5-.9-1.5 0-2.7.5-3.5 1.5-.8 1-1.2 2.5-1.2 4.5v8H117V33.9z"/>
    <path class="st1" d="M132.7 42.1h2.3v10.1c0 1.4.3 2.4.8 3 .5.6 1.3.9 2.5.9 1.5 0 2.7-.5 3.5-1.5.8-1 1.2-2.5 1.2-4.5v-8h2.2v15.3H143l.2-2.6c-.5 1.1-1.2 1.9-2.1 2.4-.9.6-1.9.8-3.1.8-1.7 0-3-.5-3.9-1.4-.9-1-1.3-2.4-1.3-4.4V42.1z"/>
    <path class="st1" d="M149.1 33.9h2.2v23.5h-2.2V33.9z"/>
    <path class="st1" d="M169.6 50.4H157c0 1.8.6 3.2 1.6 4.2s2.3 1.5 4 1.5c1.1 0 2-.2 2.8-.7.8-.5 1.4-1.1 1.8-2h2.4c-.5 1.5-1.3 2.7-2.5 3.4s-2.7 1.2-4.5 1.2c-2.4 0-4.4-.7-5.8-2.2-1.4-1.5-2.2-3.5-2.2-6s.7-4.5 2.1-6.1c1.4-1.5 3.2-2.3 5.5-2.3 2.4 0 4.2.7 5.5 2.1 1.3 1.4 1.9 3.4 1.9 6v.9zm-2.5-2c-.1-1.6-.6-2.8-1.5-3.7-.9-.9-2.1-1.3-3.6-1.3-1.4 0-2.5.4-3.4 1.3-.9.9-1.5 2.1-1.8 3.7h10.3z"/>
    <path class="st1" d="M83.2 55.9c0 .9-.7 1.6-1.6 1.6-.9 0-1.6-.7-1.6-1.6 0-.9.7-1.6 1.6-1.6.9 0 1.6.7 1.6 1.6z"/>
    <path class="st1" d="M66.4 38.2c0 .9-.7 1.6-1.6 1.6-.9 0-1.6-.7-1.6-1.6 0-.9.7-1.6 1.6-1.6.9 0 1.6.7 1.6 1.6z"/>
  </g>
  <g>
    <path class="st1" d="M30.4 27.2c2.6 1.5 3.5 4.9 2 7.5-1.5 2.6-4.9 3.5-7.5 2-2.6-1.5-3.5-4.9-2-7.5 1.5-2.6 4.9-3.5 7.5-2z"/>
    <path class="st2" d="M19.6 22.3c2 1.1 2.6 3.7 1.5 5.7s-3.7 2.6-5.7 1.5-2.6-3.7-1.5-5.7c1.2-2 3.7-2.7 5.7-1.5z"/>
    <path class="st3" d="M19.2 11.5c1.6.9 2.1 2.9 1.2 4.5-.9 1.6-2.9 2.1-4.5 1.2-1.6-.9-2.1-2.9-1.2-4.5.9-1.6 2.9-2.1 4.5-1.2z"/>
    <path class="st3" d="M10 29.2c1.6.9 2.1 2.9 1.2 4.5-.9 1.6-2.9 2.1-4.5 1.2-1.6-.9-2.1-2.9-1.2-4.5.9-1.6 2.9-2.2 4.5-1.2z"/>
    <path class="st3" d="M48.5 29.2c1.6.9 2.1 2.9 1.2 4.5-.9 1.6-2.9 2.1-4.5 1.2-1.6-.9-2.1-2.9-1.2-4.5 1-1.6 3-2.2 4.5-1.2z"/>
    <path class="st4" d="M48.5 18.1c1.6.9 2.1 2.9 1.2 4.5-.9 1.6-2.9 2.1-4.5 1.2-1.6-.9-2.1-2.9-1.2-4.5 1-1.6 3-2.1 4.5-1.2z"/>
    <path class="st4" d="M29.3 7c1.6.9 2.1 2.9 1.2 4.5-.9 1.6-2.9 2.1-4.5 1.2-1.6-.9-2.1-2.9-1.2-4.5.9-1.6 2.9-2.1 4.5-1.2z"/>
    <path class="st4" d="M29.3 51.3c1.6.9 2.1 2.9 1.2 4.5-.9 1.6-2.9 2.1-4.5 1.2-1.6-.9-2.1-2.9-1.2-4.5.9-1.6 2.9-2.1 4.5-1.2z"/>
    <path class="st4" d="M10 40.5c1.6.9 2.1 2.9 1.2 4.5-.9 1.6-2.9 2.1-4.5 1.2-1.6-.9-2.1-2.9-1.2-4.5.9-1.6 2.9-2.1 4.5-1.2z"/>
    <path class="st4" d="M10 18.1c1.6.9 2.1 2.9 1.2 4.5-.9 1.6-2.9 2.1-4.5 1.2-1.6-.9-2.1-2.9-1.2-4.5.9-1.6 2.9-2.1 4.5-1.2z"/>
    <path class="st5" d="M3.3 15.2c1 .6 1.4 1.9.8 3-.6 1-1.9 1.4-3 .8-1-.6-1.4-1.9-.8-3 .6-1 1.9-1.4 3-.8z"/>
    <path class="st5" d="M54.6 45.1c1 .6 1.4 1.9.8 3-.6 1-1.9 1.4-3 .8-1-.6-1.4-1.9-.8-3 .6-1 1.9-1.4 3-.8z"/>
    <path class="st5" d="M3.3 45.1c1 .6 1.4 1.9.8 3-.6 1-1.9 1.4-3 .8-1-.6-1.4-1.9-.8-3 .6-1 1.9-1.4 3-.8z"/>
    <path class="st5" d="M28.8 59.8c1 .6 1.4 1.9.8 3-.6 1-1.9 1.4-3 .8-1-.6-1.4-1.9-.8-3 .6-1 1.9-1.4 3-.8z"/>
    <path class="st5" d="M28.8.3c1 .6 1.4 1.9.8 3-.6 1-1.9 1.4-3 .8-1-.6-1.4-1.9-.8-3 .6-1.1 1.9-1.4 3-.8z"/>
    <path class="st5" d="M54.6 15.2c1 .6 1.4 1.9.8 3-.6 1-1.9 1.4-3 .8-1-.6-1.4-1.9-.8-3 .6-1 1.9-1.4 3-.8z"/>
    <path class="st4" d="M48.5 40.5c1.6.9 2.1 2.9 1.2 4.5-.9 1.6-2.9 2.1-4.5 1.2-1.6-.9-2.1-2.9-1.2-4.5 1-1.6 3-2.1 4.5-1.2z"/>
    <path class="st3" d="M39.4 46.2c1.6.9 2.1 2.9 1.2 4.5-.9 1.6-2.9 2.1-4.5 1.2-1.6-.9-2.1-2.9-1.2-4.5.9-1.6 2.9-2.1 4.5-1.2z"/>
    <path class="st3" d="M39.4 11.5c1.6.9 2.1 2.9 1.2 4.5-.9 1.6-2.9 2.1-4.5 1.2-1.6-.9-2.1-2.9-1.2-4.5.9-1.6 2.9-2.1 4.5-1.2z"/>
    <path class="st3" d="M19.2 46.2c1.6.9 2.1 2.9 1.2 4.5-.9 1.6-2.9 2.1-4.5 1.2-1.6-.9-2.1-2.9-1.2-4.5s2.9-2.1 4.5-1.2z"/>
    <path class="st2" d="M29.7 16.2c2 1.1 2.6 3.7 1.5 5.7s-3.7 2.6-5.7 1.5-2.6-3.7-1.5-5.7c1.2-2 3.8-2.6 5.7-1.5z"/>
    <path class="st2" d="M39.8 22.3c2 1.1 2.6 3.7 1.5 5.7s-3.7 2.6-5.7 1.5-2.6-3.7-1.5-5.7c1.2-2 3.8-2.6 5.7-1.5z"/>
    <path class="st2" d="M19.6 34.7c2 1.1 2.6 3.7 1.5 5.7s-3.7 2.6-5.7 1.5-2.6-3.7-1.5-5.7c1.2-2 3.7-2.6 5.7-1.5z"/>
    <path class="st2" d="M29.7 40.8c2 1.1 2.6 3.7 1.5 5.7s-3.7 2.6-5.7 1.5-2.6-3.7-1.5-5.7c1.2-2 3.8-2.6 5.7-1.5z"/>
    <path class="st2" d="M39.8 34.7c2 1.1 2.6 3.7 1.5 5.7s-3.7 2.6-5.7 1.5-2.6-3.7-1.5-5.7c1.2-2 3.8-2.6 5.7-1.5z"/>
  </g>
</svg>