<svg data-name="Layer 1" xmlns="http://www.w3.org/2000/svg" viewBox="0 0 613.75 207.7"><path d="M98.24 167.71h96.46c1.66 0 1.67 0 1.66 1.69 0 4.43.16 8.86-.74 13.25-2 10-7.81 17-17.07 21.07a40.53 40.53 0 01-16.65 3.38H33.65c-8.77 0-16.88-2.5-23.71-8.27-5.1-4.35-7.94-9.95-9.25-16.41-.93-4.59-.61-9.23-.68-13.86 0-.59.17-.9.81-.85H1.9z" fill="#9c9e9f"/><path d="M39.35 73.11v58.42c0 1.16-.27 1.44-1.43 1.44q-18.3-.08-36.59 0c-1 0-1.35-.18-1.35-1.29v-117c0-1.12.31-1.39 1.39-1.38h36.6c1.07 0 1.39.24 1.38 1.36q-.02 29.23 0 58.45z" fill="#f19401"/><path d="M117.86 73.21v58.29c0 1.12-.2 1.48-1.41 1.47q-18.28-.08-36.58 0c-1 0-1.42-.17-1.42-1.34q.06-58.47 0-116.94c0-1.13.32-1.35 1.4-1.34 12.15.05 24.31 0 36.46 0 1.74 0 1.52-.19 1.52 1.54z" fill="#96be0d"/><path d="M196.36 73.18v58.3c0 1.26-.37 1.5-1.55 1.5q-18.16-.07-36.35 0c-1.06 0-1.42-.23-1.42-1.37q.06-58.41 0-116.83c0-1.14.35-1.39 1.42-1.38h36.23c1.63 0 1.63 0 1.63 1.59z" fill="#6f9dce"/><path d="M488.53 24c4.53-9.15 16.39-8.32 19.86-.56a6.07 6.07 0 001.29-1.49 12 12 0 0113.24-4c3.54 1.1 5.45 3.72 6.45 7.12a24.59 24.59 0 01.93 6.87v24.34c0 1-.23 1.22-1.19 1.19-2.43-.07-4.88-.07-7.31 0-.93 0-1.11-.26-1.11-1.14V32.22a12.37 12.37 0 00-.22-2.5c-.39-2-1.13-3.7-3.32-4.24a5.43 5.43 0 00-5.81 1.87 8.93 8.93 0 00-2 6v22.79c0 1.06-.23 1.36-1.31 1.32-2.39-.09-4.79-.08-7.19 0-.93 0-1.11-.26-1.1-1.14V32.7a15.69 15.69 0 00-.29-3.22c-.38-1.8-1.13-3.37-3.06-3.95a5.38 5.38 0 00-5.46 1.21c-2 1.87-2.58 4.34-2.58 7v22.43c0 1-.23 1.36-1.31 1.32-2.36-.09-4.72-.08-7.08 0-.94 0-1.19-.22-1.18-1.17V26.57c0-2.56 0-5.11-.25-7.66-.05-.63.11-.82.75-.81h7.92c.67 0 .79.26.82.82.28 1.53.39 3.19.51 5.08zM376.06 136.85a27.16 27.16 0 009.37 3.2 15.44 15.44 0 005.71-.23c4-1 6.29-4 6.73-8.73a53.52 53.52 0 00.2-6.58c-.44-.13-.46.27-.56.47-4 7.85-14.9 7.29-19.61 1.25a20.4 20.4 0 01-3.95-11 34.78 34.78 0 011.38-14.68c1.32-3.82 3.41-7.08 7.32-8.7 4.94-2 11.4-1.71 15.18 4.71.17.3.38.59.74 1.14.11-1.92.26-3.56.29-5.2 0-.8.21-1.12 1.08-1.1 2.24.06 4.48 0 6.72 0 .65 0 .88.12.85.85-.56 11.83-.13 23.66-.27 35.49a32.2 32.2 0 01-1.36 9.45c-1.87 5.89-6 9.19-12 10.16a36.89 36.89 0 01-17.58-1.74c-.68-.23-.81-.58-.77-1.22.21-2.46.36-4.93.53-7.54zm7.54-25.69c0 .61 0 1.77.15 2.92a15.51 15.51 0 002.27 7.46 4.74 4.74 0 004.82 2.2c3.44-.39 5.33-2.44 6.3-5.55a24.45 24.45 0 00.89-7.46 18.55 18.55 0 00-1.8-8.94 6.39 6.39 0 00-4.49-3.62c-3.47-.64-6.09 1.11-7.24 4.87a27.31 27.31 0 00-.9 8.12zM288.67 121.84c.48-2.21 1-4.41 1.45-6.62 1.66-7.64 3.34-15.28 5-22.93.15-.7.4-.89 1.08-.88h9c.72 0 1 .17 1.16.93 2 9.76 4.12 19.52 6.41 29.32.3-1.39.62-2.78.91-4.17 1.73-8.36 3.47-16.72 5.16-25.09.17-.8.45-1 1.24-1 2.67.06 5.35 0 8.2 0-.56 2.16-1.09 4.21-1.64 6.27-2.82 10.63-5.67 21.26-8.45 31.91-.27 1.05-.73 1.26-1.7 1.24q-4-.09-8 0c-.81 0-1.07-.26-1.24-1q-3.23-14.3-6.51-28.58c-.06-.27-.16-.53-.33-1.12-.81 3.58-1.55 6.84-2.28 10.11l-4.38 19.62c-.16.74-.44 1-1.25 1-2.87-.06-5.76 0-8.63 0-.55 0-.83-.1-1-.7q-5.15-19.25-10.35-38.47a1.67 1.67 0 010-.24h9.2c.67 0 .65.47.73.87q2.31 11.13 4.6 22.27c.5 2.43 1 4.85 1.51 7.27zM300.27 26.92c-1.31 5.81-2.6 11.57-3.89 17.32-.9 4-1.81 8-2.67 12-.18.85-.53 1.11-1.41 1.09-2.8-.06-5.6 0-8.4 0a1 1 0 01-1.15-.85q-5.14-19.17-10.32-38.34c.27-.3.6-.18.9-.18h7.91c.73 0 1.05.19 1.2.92q2.74 13.49 5.54 27a15.19 15.19 0 00.68 2.49c.4-1.77.81-3.55 1.2-5.33 1.71-7.92 3.44-15.83 5.1-23.75.22-1 .59-1.33 1.62-1.3q4.14.12 8.28 0c1 0 1.35.24 1.56 1.22 2 9.57 4 19.13 6 28.69a.52.52 0 00.28.38c.39-1.81.78-3.63 1.15-5.44 1.66-8 3.33-15.94 4.94-23.91.15-.78.45-.94 1.16-.93h8.26c-.88 3.35-1.74 6.59-2.6 9.82-2.53 9.52-5.09 19-7.59 28.56-.2.78-.51 1-1.28 1h-8.4c-.75 0-1-.24-1.18-.94q-3.16-14.18-6.45-28.35a2.32 2.32 0 00-.44-1.17zM604.07 97.06V80.57v-6.24c0-.68.18-.89.87-.88 2.48 0 5 .07 7.44 0 1 0 1.26.19 1.26 1.22q-.06 19.5 0 39c0 4.88 0 9.76.08 14.64v.6c.16 1.93.16 1.93-1.72 1.93s-3.76-.09-5.64 0c-1.18.08-1.53-.34-1.5-1.42v-4.43c-.45-.11-.51 0-.57.19-3.56 8.19-15.78 8.15-20.4.93a24 24 0 01-3.52-11.19 35.2 35.2 0 011.39-14.56c1.24-3.62 3.2-6.71 6.8-8.43 5.74-2.75 11.92-.79 15.51 5.13zm0 13.93c-.05-3.21-.26-6.39-1.68-9.34a6 6 0 00-4.52-3.73c-3.5-.58-6.11 1.23-7.25 5.08a29.25 29.25 0 00-.91 9.5c.12 2.82.21 5.67 1.35 8.34a5.44 5.44 0 005.2 3.54c3 .11 4.91-1.36 6.14-3.92 1.43-3 1.6-6.23 1.67-9.46zM351.33 172.81c.38-.52.57-.77.75-1a11.66 11.66 0 0114.83-3.56c3.38 1.71 4.8 4.74 5.53 8.23a25.09 25.09 0 01.48 5.12v24.35c0 .94-.26 1.13-1.13 1.11-2.44-.06-4.88-.07-7.32 0-1 0-1.16-.34-1.15-1.23v-24a13.24 13.24 0 00-.24-2.26c-.43-2.62-1.76-4.22-3.76-4.57a6 6 0 00-6.6 2.79 11.1 11.1 0 00-1.38 5.75v22.31c0 .93-.21 1.22-1.17 1.19-2.48-.07-5-.05-7.44 0-.79 0-1-.23-1-1v-55.31c0-.8.23-1 1-1 2.52 0 5 .06 7.56 0 .86 0 1 .25 1 1.07v20.51zM388.05 23.14c.35-.48.48-.63.59-.8 3.32-5.12 8.49-5.81 13.38-4.43 4.37 1.23 6.26 4.65 7.13 8.8a26.08 26.08 0 01.49 5.36v24.11c0 .92-.19 1.23-1.16 1.2a119.1 119.1 0 00-7.32 0c-.91 0-1.12-.24-1.12-1.13V33.7a18.89 18.89 0 00-.35-4.18c-.46-2-1.34-3.74-3.59-4.16s-4.57 0-6.17 2a9.93 9.93 0 00-1.92 6.42v22.43c0 .89-.15 1.24-1.15 1.21-2.43-.08-4.87-.07-7.31 0-.89 0-1.14-.21-1.14-1.12V35.67 1.24c0-.95.25-1.2 1.18-1.17 2.48.06 5 .05 7.44 0 .79 0 1 .2 1 1v20.64zM405.85 201a24.84 24.84 0 01-2.46 3.33c-3.37 3.53-7.52 3.95-11.94 2.81s-6.31-4.45-7.24-8.55a25.12 25.12 0 01-.53-5.47v-24.23c0-1 .26-1.27 1.26-1.24 2.39.08 4.8.08 7.19 0 .93 0 1.12.27 1.12 1.15v22.42a18.06 18.06 0 00.43 4.4c.59 2.41 2 3.81 4 4.09 2.83.4 5-.54 6.25-2.74a12.44 12.44 0 001.39-6.24V168.9c0-1 .23-1.29 1.24-1.26 2.35.08 4.72.08 7.07 0 1 0 1.26.24 1.26 1.25q-.06 16.13 0 32.26c0 1.67.1 3.35.23 5 0 .59 0 .87-.69.86h-7.44c-.57 0-.75-.2-.77-.76-.14-1.66-.22-3.33-.37-5.25zM464.86 97.34c.73-1 1.26-1.86 1.91-2.62a12 12 0 0114.63-2.55c3.32 1.89 4.61 5 5.27 8.56a27.74 27.74 0 01.37 4.9v24c0 1-.27 1.27-1.26 1.23-2.39-.07-4.79-.06-7.19 0-.88 0-1.13-.17-1.13-1.09.05-7.6 0-15.2 0-22.79a18.59 18.59 0 00-.4-3.93c-.57-2.61-1.75-4-3.87-4.29-2.56-.36-4.78.28-6.27 2.56a11.23 11.23 0 00-1.53 6.31v21.94c0 1.08-.28 1.33-1.31 1.3-2.36-.09-4.72-.07-7.08 0-.91 0-1.19-.19-1.18-1.15V98.29c0-2-.12-4.07-.24-6.1 0-.59.09-.76.68-.75h7.44c.66 0 .77.25.79.84.14 1.6.26 3.22.37 5.06zM336.82 101.38c-.19-2.55-.34-4.9-.53-7.23 0-.45.22-.56.5-.69a26.72 26.72 0 0118.66-1.8c4.95 1.34 7.52 4.89 8.13 10.5.33 3 .17 6.07.23 9.1.1 5.64-.24 11.27.23 16.9 0 .24 0 .48.06.72.23 1.94.23 1.94-1.66 1.94s-3.69-.09-5.52 0c-1.09.08-1.38-.39-1.47-1.3a28.12 28.12 0 01-.24-4.18c-1.68 2.14-3.29 3.9-5.52 4.9-6.61 2.94-15.93.3-17.19-8.33-1-6.86 1.63-12.3 9.73-14.39a43.09 43.09 0 0111.54-1.07c.92 0 1.25-.21 1.18-1.17a16.57 16.57 0 00-.33-2.72c-.8-3.2-3.21-5-6.84-5a18.25 18.25 0 00-10.96 3.82zM354.93 114a11.44 11.44 0 010-1.55c.1-.79-.25-1-.95-.9-1 .07-2.08 0-3.11.09a16.4 16.4 0 00-6.24 1.44c-4.13 2.11-4.74 8.35-1 10.84 3 2 8.37 1.18 10.08-3a19.7 19.7 0 001.22-6.92zM550.91 121.31c.16 2.48.3 4.71.45 6.93 0 .4-.05.7-.47.86-6.53 2.53-13.14 3.5-19.78.56-5-2.22-7.81-6.38-8.94-11.6-1.6-7.37-1-14.5 3.35-20.9 6-8.77 17.4-7.37 22.17-2.89a17.71 17.71 0 015 9.87 43.16 43.16 0 01.7 8.34c0 .93-.21 1.21-1.18 1.21h-20.27c-1.08 0-1.52.23-1.3 1.36s.25 2.06.5 3.07c1 3.76 3.81 6 7.93 6.26s8.2-.38 11.84-3.07zm-13.58-13.65h6c.48 0 .88 0 .84-.66a16.94 16.94 0 00-1.19-6.18 5.54 5.54 0 00-4.86-3.54 5.78 5.78 0 00-5.42 2.65 13.54 13.54 0 00-2.06 6.89c-.06.72.18.87.84.85 1.93-.04 3.89-.01 5.85-.01zM445.06 121.29c.14 2.55.25 4.85.39 7.15a.56.56 0 01-.39.64c-6.69 2.59-13.44 3.56-20.21.4a14.94 14.94 0 01-8-9.53 26.57 26.57 0 011.52-20.7c4.55-8.9 13.57-10 20.29-7 4.69 2.08 6.79 6.19 7.95 10.9a44.06 44.06 0 011 9.52c0 .87-.28 1-1.08 1h-20.52c-1 0-1.29.31-1.19 1.26a19.12 19.12 0 00.6 3.54c1.07 3.54 3.8 5.64 7.74 5.89 4.12.23 8.15-.28 11.9-3.07zm-13.67-13.63h6c.44 0 .89.08.87-.62a14.51 14.51 0 00-1.44-6.72 5.72 5.72 0 00-9.24-1.32c-2.09 2.13-2.58 4.87-2.83 7.69-.07.83.25 1 1 1 1.88-.06 3.76-.03 5.64-.03zM447.32 47.93c.16 2.41.29 4.67.46 6.93a.67.67 0 01-.5.8c-6 2.38-12.13 3.27-18.35 1.13-6-2.07-9.25-6.74-10.51-12.77a26.74 26.74 0 012.19-18.18c4.34-8.39 14.68-11.19 22.15-6.06 3.66 2.51 5.3 6.26 6.23 10.42a41.81 41.81 0 01.8 8.93c0 .89-.22 1.13-1.13 1.13H428.4c-1.22 0-1.55.37-1.31 1.49.11.51.06 1 .15 1.55.94 5.35 4.25 7.86 10.07 7.7a22.92 22.92 0 005.21-.69 16.76 16.76 0 004.8-2.38zm-13.6-13.7h6c.68 0 .92-.21.87-.89a19 19 0 00-.95-5.39c-.89-2.35-2.44-3.91-5.05-4.13a5.85 5.85 0 00-5.78 3.09 13.92 13.92 0 00-1.75 6.5c-.05.63.18.83.81.82 1.94-.02 3.89 0 5.85 0zM473.51 197.72c.15 2.3.29 4.56.45 6.82a.68.68 0 01-.5.8c-6.37 2.5-12.85 3.43-19.35.74-5.61-2.33-8.48-7-9.59-12.73a26.92 26.92 0 012.32-17.94c5-9.63 15.24-9.89 21.41-6.39 3.71 2.11 5.54 5.63 6.62 9.59a38 38 0 011.07 10.57c0 .87-.52.71-1 .71h-20.39c-1.1 0-1.44.24-1.3 1.39a20.26 20.26 0 00.65 3.64c1.16 3.54 3.85 5.47 8.15 5.7 3.94.21 7.73-.34 11-2.75a1.54 1.54 0 01.46-.15zM460 183.89h6c.61 0 .82-.12.77-.79a16.78 16.78 0 00-1.15-6 5.49 5.49 0 00-4.78-3.62 5.82 5.82 0 00-5.75 2.93 13.59 13.59 0 00-1.82 6.49c-.06.77.11 1 .86.94 1.93.02 3.87.05 5.87.05zM500.84 114.59c0-4.91-.06-9.83 0-14.75 0-1.28-.37-1.52-1.51-1.44-1.43.1-2.88 0-4.31 0-.58 0-.76-.16-.75-.74 0-1.84.05-3.68 0-5.52 0-.68.26-.78.84-.77h4.68c.87 0 1-.27 1-1.08A74.64 74.64 0 01501 81a9.29 9.29 0 018.43-8.31 26.57 26.57 0 018.8.58c.41.08.81.12.74.81-.18 1.78-.28 3.58-.33 5.38 0 .74-.17.94-.95.72a8 8 0 00-3.54-.37 4.08 4.08 0 00-3.72 3.91c-.14 2.35 0 4.72-.08 7.08 0 .6.34.6.77.6h5.52c.74 0 1 .19.93.94-.05 1.75 0 3.52 0 5.27 0 .63-.17.83-.8.82h-5.4c-.87 0-1 .25-1 1.07v30.11c0 .95-.16 1.3-1.21 1.27q-3.66-.14-7.32 0c-.95 0-1.08-.3-1.07-1.14.09-5.07.07-10.11.07-15.15zM284.78 207.62a32.68 32.68 0 01-8.93-1.48c-.8-.23-1.17-.55-1.08-1.49.21-2 .29-4 .39-6 0-.67.17-.89.9-.56a23.92 23.92 0 007.31 2.18 12 12 0 005.22-.38 3.49 3.49 0 001.6-5.85 11.61 11.61 0 00-3-2.34c-2.19-1.31-4.41-2.59-6.57-3.95-2.67-1.68-4.87-3.78-5.58-7-1-4.79 1.13-9.25 5.69-11.83 3.23-1.84 6.74-2.1 10.33-1.8a33.47 33.47 0 016.34 1.21c.61.17.92.39.83 1.15-.21 1.86-.34 3.74-.41 5.61 0 .84-.27.89-1 .62a18.13 18.13 0 00-9.38-1.28c-1.55.25-2.83.88-3.31 2.52a3.71 3.71 0 001.55 4.2c2.17 1.71 4.58 3.06 6.89 4.56 1.5 1 3 2 4.39 3.11 5.3 4.16 3.88 11.94-.13 15.26-3.33 2.77-7.24 3.57-12.05 3.54zM334 198.55c.18 2.34.36 4.6.53 6.86 0 .38 0 .66-.47.8-6.45 1.94-12.83 2.33-18.93-1.05a15.21 15.21 0 01-7.08-9 27.22 27.22 0 01-.16-16.84c2.39-7.58 8.41-12 16.36-12.25a27.35 27.35 0 018.85 1.24c.74.23.95.57.86 1.36-.19 1.66-.26 3.34-.36 5s-.08 1.53-1.44.93a12.8 12.8 0 00-7.22-1.19 8.56 8.56 0 00-7.42 6.24 20.32 20.32 0 00-.2 12.27c1.74 5.83 6.82 8.59 12.73 7.1a23.47 23.47 0 003.95-1.47zM561.55 102.14V74.55c0-.88.2-1.13 1.1-1.11 2.52.07 5 0 7.56 0 .72 0 .94.17.94.92v55.54c0 .76-.21.94-.94.93-2.52-.05-5-.07-7.55 0-.91 0-1.11-.21-1.11-1.11.02-9.18 0-18.38 0-27.58zM457.92 28.72V1.25c0-1 .25-1.27 1.25-1.24 2.43.08 4.87.07 7.31 0 .84 0 1.05.19 1.05 1v55.06c0 1-.18 1.3-1.22 1.26-2.39-.09-4.79-.07-7.19 0-.95 0-1.2-.23-1.19-1.18 0-9.15-.01-18.27-.01-27.43zM436 178.39v27.48c0 1-.28 1.18-1.2 1.16-2.44-.06-4.88-.05-7.32 0-.8 0-1.09-.16-1.09-1v-55.31c0-.85.3-1 1-1 2.52 0 5 .06 7.56 0 .91 0 1 .31 1 1.09.05 9.19.05 18.39.05 27.58zM357.29 28.71V1.24c0-1 .24-1.26 1.24-1.23 2.35.08 4.72.11 7.07 0 1.15 0 1.26.39 1.25 1.35v54.82c0 .93-.22 1.23-1.19 1.21q-3.6-.12-7.2 0c-.95 0-1.18-.25-1.18-1.18.02-9.21.01-18.34.01-27.5zM336 37.61V19.15c0-1 .27-1.2 1.2-1.18 2.51.07 5 .05 7.55 0 .69 0 .85.2.85.87v37.64c0 .66-.16.89-.86.88h-7.67c-.84 0-1.07-.22-1.06-1.06-.01-6.23-.01-12.46-.01-18.69zM340.79 10.6h-4.19c-.51 0-.69-.14-.68-.67v-8c0-.5.12-.7.66-.69h8.5c.63 0 .7.27.7.79v7.78c0 .62-.16.83-.8.81-1.39-.05-2.79-.02-4.19-.02z" fill="#1b181c"/></svg>