<?xml version="1.0" encoding="UTF-8" standalone="no"?>

<!-- Created with Inkscape (http://www.inkscape.org/) -->

<svg xmlns:rdf="http://www.w3.org/1999/02/22-rdf-syntax-ns#" xmlns="http://www.w3.org/2000/svg" height="400" width="1000" version="1.0" xmlns:cc="http://creativecommons.org/ns#" xmlns:dc="http://purl.org/dc/elements/1.1/">

 <metadata>

  <rdf:RDF>

   <cc:Work rdf:about="">

    <dc:format>image/svg+xml</dc:format>

    <dc:type rdf:resource="http://purl.org/dc/dcmitype/StillImage"/>

    <dc:title/>

   </cc:Work>

  </rdf:RDF>

 </metadata>

 <path d="m984.5105,25.415961-230.51422,0,0,78.511439,67.39781,0,0,270.66615,95.71893,0,0-270.66615,67.39748,0,0-78.511439zm-253.45829,348.81894h-95.71919v-348.81894h95.71919v348.81894zm-111.85159,0-106.47385,0-126.54981-135.87062,0-77.79425,122.60625-135.51274,109.70066,0-141.24836,175.66465,141.96511,173.51296z" fill-rule="evenodd" fill="#000"/>

 <path d="m363.2329,374.2349,0,0,0,0,0,0z" fill-rule="evenodd" fill="#000"/>

 <path d="m363.2329,374.2349,0,0,0,0,0,0z" fill-rule="evenodd" fill="#000"/>

 <path d="M90.415838,153.04142c-18.283583,22.22712-34.057265,46.60505-46.246544,72.77533l319.06361,148.41815-272.81706-221.19348z" fill-rule="evenodd" fill="#32a189"/>

 <path d="M363.2329,374.2349,214.45625,57.681003c-26.52903,12.188587-50.90675,27.24608-73.13364,45.170947l221.91029,271.38295z" fill-rule="evenodd" fill="#32a189"/>

 <path d="m363.2329,374.2349,0.35846-348.81894h-2.86773c-28.32151,0-55.9259,3.585389-82.45464,10.038217l84.96391,338.78072z" fill-rule="evenodd" fill="#000"/>

 <path d="m363.2329,374.2349,0,0,0,0,0,0,0,0z" fill-rule="evenodd" fill="#000"/>

 <path d="m363.2329,374.2349,0,0,0,0,0,0,0,0z" fill-rule="evenodd" fill="#000"/>

 <path d="M21.225547,288.91246c-7.169814,27.24608-10.754847,55.92567-11.113434,85.32244h353.12079l-342.00735-85.32244z" fill-rule="evenodd" fill="#32a189"/>
</svg>

